<?xml version="1.0" encoding="utf-8"?>
<!-- Generator: Adobe Illustrator 19.0.0, SVG Export Plug-In . SVG Version: 6.00 Build 0)  -->
<svg version="1.1" id="Layer_1" xmlns="http://www.w3.org/2000/svg" xmlns:xlink="http://www.w3.org/1999/xlink" x="0px" y="0px"
	 viewBox="-109 236 500 250" style="enable-background:new -109 236 500 250;" xml:space="preserve">
<style type="text/css">
	.st0{fill:#FF5335;}
</style>
<g id="Background_xA0_Image_1_">
	<path class="st0" d="M342.2,388.5c3-5.7,5-11.6,3.2-17.8c-2.7-9.3-5.8-18.4-8.5-27.6c-3.7-12.7,5.6-24.3,18.8-23.1
		c3.3,0.3,6.5,1.9,9.8,2.9c3.5-18.4-14.9-38.1-34.9-37.3c-14.5,0.6-27.1,9.9-31.8,23.4c-4.7,13.6-0.6,28.4,10.7,37.9
		c6,5,12,10.1,18.3,14.7C336.9,368.3,343,376.4,342.2,388.5z"/>
	<path class="st0" d="M292.1,403.4c0.2,0.4,0.4,0.8,0.6,1.2c8.6,0,17.2,0.6,25.7-0.2c10.6-1,18.2-10.3,17.6-20.1
		c-0.6-10.2-9-18.4-19.1-18.9c-9.6-0.4-18.5,7.1-19.8,17.4c-0.5,3.6,0.8,7.5,1.5,11.2c0.7,3.2,1.1,5.9-3.2,6.7
		C294.2,401.1,293.2,402.5,292.1,403.4z"/>
	<path class="st0" d="M290.3,385c1.6-2.1,3.5-3.4,3.4-4.7c-0.1-1.3-2-3.3-3.2-3.4c-1.2,0-3.2,1.9-3.4,3.2
		C287,381.3,288.8,382.8,290.3,385z"/>
	<path class="st0" d="M292.1,403.4c1.1-0.9,2.1-2.3,3.3-2.5c4.4-0.8,3.9-3.5,3.2-6.7c-0.8-3.7-2-7.6-1.5-11.2
		c1.3-10.3,10.2-17.8,19.8-17.4c10.2,0.4,18.5,8.6,19.1,18.9c0.6,9.8-7,19.1-17.6,20.1c-8.5,0.8-17.1,0.2-25.7,0.2
		C292.5,404.2,292.3,403.8,292.1,403.4z"/>
	<path class="st0" d="M290.3,385c-1.5-2.2-3.3-3.6-3.2-4.9c0.2-1.3,2.2-3.2,3.4-3.2c1.2,0,3.1,2.1,3.2,3.4
		C293.8,381.5,291.9,382.9,290.3,385z"/>
	<path class="st0" d="M298.6,348.6c0.9,1.3,1,1.3,1.4,4.4c0.6,4.1,1,5.8,1.1,8c0.2,8.7-6.9,14.3-15.4,11.7c-3.4-1-4.3-2.8-4.8-4.7
		c-1.8-7.7,1.9-12.5,9.7-14.5C293.3,352.6,295.1,351.8,298.6,348.6z M291,357.6c-0.8,0-1.4,0.6-1.4,1.4s0.6,1.4,1.4,1.4
		c0.8,0,1.4-0.6,1.4-1.4C292.4,358.2,291.7,357.6,291,357.6z"/>
</g>
<g id="ALUMNUTS">
	<g>
		<path d="M-56.7,391.4h-14.6l-5.1,12.7h-2.7l14.5-36h1.6l14.2,36h-2.9L-56.7,391.4z M-70.4,389.2h12.8l-4.9-13
			c-0.4-1-1-2.5-1.5-4.2c-0.4,1.6-1,3-1.5,4.2L-70.4,389.2z"/>
		<path d="M-32.8,404.1v-35.9h2.5v33.5h17.1v2.3h-19.6V404.1z"/>
		<path d="M30.4,368.1v23.2c0,4.1-1.2,7.4-3.6,9.7c-2.3,2.3-5.7,3.6-10,3.6c-4.1,0-7.4-1.2-9.7-3.6c-2.3-2.3-3.6-5.6-3.6-9.7v-23.2
			h2.6v23.2c0,3.4,1,6.1,2.9,8.1c1.9,1.9,4.6,2.9,8.1,2.9c3.4,0,6-1,7.9-2.9s2.9-4.5,2.9-7.9v-23.3h2.5V368.1z"/>
		<path d="M67,404.1l-13.4-33.2h-0.1c0.1,2,0.1,4.1,0.1,6.3v26.9h-2.5v-35.9h3.8l12.7,31.5h0.1l12.7-31.5h3.8v35.9h-2.6v-27.2
			c0-1.9,0.1-3.8,0.3-5.9h-0.1l-13.4,33H67V404.1z"/>
		<path class="st0" d="M136.9,404.1h-9.7l-15.6-27.2h-0.3c0.3,4.8,0.4,8.2,0.4,10.2V404h-6.8v-35.9h9.6l15.6,26.9h0.1
			c-0.3-4.6-0.4-7.9-0.4-9.8v-17.1h6.8V404h0.3V404.1z"/>
		<path class="st0" d="M186.2,368.1v23.2c0,2.6-0.5,4.9-1.8,7c-1.2,2-2.9,3.6-5.2,4.6c-2.3,1.1-4.9,1.6-7.9,1.6
			c-4.6,0-8.2-1.2-10.8-3.6c-2.6-2.3-3.8-5.6-3.8-9.7V368h7.6v22c0,2.7,0.5,4.8,1.6,6.1c1.1,1.2,3,1.9,5.5,1.9s4.2-0.7,5.5-1.9
			c1.1-1.4,1.6-3.3,1.6-6.1v-21.8h7.6L186.2,368.1L186.2,368.1z"/>
		<path class="st0" d="M219.9,404.1h-7.6v-29.5h-9.7v-6.4h27v6.3h-9.7L219.9,404.1L219.9,404.1z"/>
		<path class="st0" d="M267.3,394.1c0,3.3-1.2,5.7-3.6,7.6c-2.3,1.9-5.6,2.7-9.7,2.7c-3.8,0-7.2-0.7-10.1-2.2v-7.1
			c2.5,1.1,4.5,1.8,6.1,2.3c1.6,0.4,3.3,0.7,4.6,0.7c1.6,0,3-0.3,3.8-1c1-0.7,1.4-1.6,1.4-2.9c0-0.7-0.1-1.4-0.5-1.9s-1-1.1-1.8-1.6
			s-2.3-1.4-4.6-2.5c-2.2-1.1-3.8-2-4.9-3s-1.9-2-2.6-3.3c-0.7-1.2-1-2.7-1-4.4c0-3.1,1.1-5.7,3.3-7.5c2.2-1.8,5.2-2.7,8.9-2.7
			c1.9,0,3.7,0.3,5.3,0.7c1.6,0.4,3.4,1.1,5.3,1.9l-2.5,5.9c-1.9-0.8-3.6-1.4-4.8-1.6s-2.5-0.4-3.7-0.4c-1.5,0-2.6,0.3-3.3,1
			c-0.7,0.7-1.1,1.5-1.1,2.6c0,0.7,0.1,1.2,0.4,1.8c0.3,0.5,0.8,1,1.5,1.5c0.7,0.4,2.3,1.4,4.8,2.5c3.4,1.6,5.6,3.3,6.8,4.8
			C266.8,389.9,267.3,391.8,267.3,394.1z"/>
	</g>
</g>
</svg>
