<?xml version="1.0" encoding="utf-8"?>
<!-- Generator: Adobe Illustrator 19.0.0, SVG Export Plug-In . SVG Version: 6.00 Build 0)  -->
<svg version="1.1" id="Layer_1" xmlns="http://www.w3.org/2000/svg" xmlns:xlink="http://www.w3.org/1999/xlink" x="0px" y="0px"
	 viewBox="0 0 720 720" style="enable-background:new 0 0 720 720;" xml:space="preserve">
<style type="text/css">
	.st0{fill:#FFFFFF;}
	.st1{fill:#FFE3B3;}
</style>
<g id="XMLID_133_">
	<path id="XMLID_136_" class="st0" d="M364.5,400.4c0,1.2,0,2.2,0,3.3c0,54.1,0,108.3,0,162.4c0,1.9,0,3.8,0.3,5.6
		c1.8,10.5,10.9,18.1,21.5,18.1c10.5,0,19.5-7.5,21.4-17.8c0.4-2,0.4-4,0.4-6.1c0-94.3,0-188.7,0-283c0-1.1,0-2.2,0-3.5
		c2.9,0,5.5,0,8.4,0c0,1.1,0,2.1,0,3.1c0,32.7,0,65.4,0,98.2c0,1,0,2,0,2.9c0.3,7.1,5.1,13.2,11.9,15.1c6.8,1.9,13.9-0.7,17.7-6.6
		c1.9-2.9,2.7-6.2,2.7-9.7c0-19.7,0-39.4,0-59.1c0-18.2,0-36.3,0-54.5c0-5.3-0.7-10.5-2.3-15.6c-6.4-19.3-24.3-32.6-44.6-32.7
		c-27.8-0.2-55.7-0.1-83.5,0c-2.4,0-4.7,0.2-7,0.6c-24,4.1-40,24.7-40,46.8c0.1,38.3,0,76.7,0,115c0,0.2,0,0.5,0,0.7
		c0.2,7.9,6,14.6,13.5,15.6c8.2,1.1,15.9-3.8,18-11.6c0.5-1.9,0.7-3.9,0.7-5.8c0-33,0-66.1,0-99.1c0-1,0-2.1,0-3.1
		c2.9,0,5.5,0,8.3,0c0,1.4,0,2.6,0,3.8c0,94.3,0.1,188.5,0.1,282.8c0,1.8,0.1,3.6,0.3,5.3c1.6,10.5,10.2,18.1,20.8,18.5
		c10.4,0.4,19.7-6.8,21.9-17.2c0.5-2.1,0.5-4.4,0.5-6.5c0-54.1,0-108.3,0-162.4c0-1,0-2.1,0-3.2
		C358.6,400.4,361.4,400.4,364.5,400.4z M397.1,173.7c0.1-20.5-16.5-37.1-37-37.2c-20.5-0.1-37.1,16.4-37.2,37
		c-0.1,20.5,16.5,37.1,37,37.2C380.4,210.8,397,194.2,397.1,173.7z"/>
	<path id="XMLID_135_" class="st1" d="M364.5,400.4c-3.1,0-5.9,0-9,0c0,1.1,0,2.1,0,3.2c0,54.1,0,108.3,0,162.4c0,2.2,0,4.4-0.5,6.5
		c-2.2,10.4-11.5,17.6-21.9,17.2c-10.6-0.4-19.2-8-20.8-18.5c-0.3-1.8-0.3-3.6-0.3-5.3c-0.1-94.3-0.1-188.5-0.1-282.8
		c0-1.2,0-2.4,0-3.8c-2.8,0-5.4,0-8.3,0c0,1.1,0,2.1,0,3.1c0,33,0,66.1,0,99.1c0,1.9-0.2,3.9-0.7,5.8c-2.1,7.9-9.8,12.7-18,11.6
		c-7.5-1-13.3-7.7-13.5-15.6c0-0.2,0-0.5,0-0.7c0-38.3,0.1-76.7,0-115c0-22,16-42.7,40-46.8c2.3-0.4,4.7-0.6,7-0.6
		c27.8,0,55.7-0.1,83.5,0c20.3,0.1,38.3,13.5,44.6,32.7c1.7,5.1,2.4,10.3,2.3,15.6c0,18.2,0,36.3,0,54.5c0,19.7,0,39.4,0,59.1
		c0,3.5-0.7,6.8-2.7,9.7c-3.9,5.9-11,8.5-17.7,6.6c-6.8-1.9-11.6-8-11.9-15.1c0-1,0-2,0-2.9c0-32.7,0-65.4,0-98.2c0-1,0-1.9,0-3.1
		c-2.8,0-5.5,0-8.4,0c0,1.2,0,2.4,0,3.5c0,94.3,0,188.7,0,283c0,2-0.1,4.1-0.4,6.1c-1.9,10.4-10.9,17.8-21.4,17.8
		c-10.6,0-19.7-7.6-21.5-18.1c-0.3-1.8-0.3-3.7-0.3-5.6c0-54.1,0-108.3,0-162.4C364.5,402.6,364.5,401.6,364.5,400.4z"/>
	<path id="XMLID_134_" class="st1" d="M397.1,173.7c-0.1,20.5-16.7,37.1-37.2,37c-20.5-0.1-37.1-16.7-37-37.2
		c0.1-20.6,16.6-37,37.2-37C380.6,136.6,397.1,153.2,397.1,173.7z"/>
</g>
</svg>
