<?xml version="1.0" encoding="utf-8"?>
<!-- Generator: Adobe Illustrator 19.0.0, SVG Export Plug-In . SVG Version: 6.00 Build 0)  -->
<svg version="1.1" id="Layer_1" xmlns="http://www.w3.org/2000/svg" xmlns:xlink="http://www.w3.org/1999/xlink" x="0px" y="0px"
	 viewBox="0 0 504 504" style="enable-background:new 0 0 504 504;" xml:space="preserve">
<style type="text/css">
	.st0{fill:#FFE4B3;}
	.st1{fill:#010101;}
</style>
<path id="XMLID_17_" class="st0" d="M289.9,166.8c1-2.3,2.1-4.3,2.8-6.4c2.7-7.6,6.7-8.8,16-10.8c9.5-2,9.6-11,3.3-16
	c-4.9-3.9-9.3-6-15.7-7c-1.9-0.3-3.3-4-4.6-5.9c-1.6-2.3,0.1-4.3-3.8-7.5c-15.4-12.6-26-10.2-40.7-12c-6.1-0.8-7.5,2.1-7.3,7.1
	c0.1,3.5-0.2,7.1,0.6,10.6c0.5,2.4,2.5,4.4,3.7,6.7c2,4.1,5.9,4.8,6.2,11.3c0.1,2.3-3,6.6-5,8.7c-0.5,0.5-3.9-1.3-5.7-2.4
	c-2.3-1.4-4.5-3.1-6.6-4.8c-12.1-9.8-11.4-21-1.8-31.8c1.3-1.5,3.4-2.2,5.8-3.7c-2.8-0.5-4.5-0.8-5.7-1c-0.4-2.3-0.5-5.7-0.7-6.8
	c-2.3-0.3-5.6,2.5-5.8,1.9c-1.6-4.5-1.5-6-4-1c-3,6-8.7,10.8-10.7,17c-3.5,10.3-2.8,21.2,1.5,31.4c4,9.6,10.8,17,19.8,22.3
	c2.2,1.3-1.9,12.1-2,14c16.8,7.9,37.2,11.2,52.5,23c1.6,1.2,3.3,2.4,5.1,3.4c0-5.7,0-11.5,0-17.3c17,1.5,28.7,10.2,33.5,26.6
	c1.2-2.7,2.5-4.5,3.9-5.6c1.1-0.9,3.1,2.4,4.2,2.1c1.5-0.4,0-5.8,1.2-6.7c0.8-0.6,4.2,3,5.1,3.2C332.1,183,313,172.9,289.9,166.8z
	 M279.8,130.9c-0.2-4.1-4.3-2.3-7.3-3.7c1.9-0.3,3.8-0.5,5.9-0.9c0.2-1.6,0.5-3.2,0.8-4.8c0.3,0,0.7-0.1,1-0.1
	c0.2,1.7,0.5,3.5,0.8,5.6c1.4-0.1,2.9-0.2,4-0.3C283.3,128.1,281.5,129.6,279.8,130.9z"/>
<g id="XMLID_20_">
	<path id="XMLID_21_" class="st0" d="M404,112c3.6,2,4.4,4.6,1.7,7.2c-1,1-4.2-0.2-7.6-0.5c-1.7,5-6.7,6.9-12.7,7.7
		c-5.6,0.8-9.4-1.1-12.6-5.5c-1.1-1.5-2.9-2.5-4.5-3.6c-4.8-3.2-8.1-7.1-8-13.4c0.1-3.4-0.9-6.7-4.9-8.1c-0.7-0.2-1-1.5-1.5-2.1
		c11.1-7,22.5-8,34.5-3.3c1.5,0.6,3.4,0.6,5,0.2c5.9-1.5,8,0.3,9.8,6.1 M378.1,117.3c4-5.9,7.9-11.2,11.2-16.7c0.6-1,0-3.7-1-4.5
		c-6.7-5.8-19.7-6.4-27.5-1.4c2.8,6.2,5.5,12.3,8.4,18.7c0.7-1,1.6-2.2,2.8-3.8c0,2.6,0,4.5,0,6.4c0.3,0,0.6,0,0.9,0
		c0.8-1.5,1.6-3,2.4-4.5c0.2,0,0.3,0.1,0.5,0.1c-0.4,1.9-0.8,3.7-1.1,5.6c0.4,0.1,0.8,0.2,1.3,0.4c0.7-1.6,1.3-3.2,2-4.8
		c0.2,0,0.3,0.1,0.5,0.1C378.3,114.2,378.2,115.5,378.1,117.3z"/>
</g>
<g id="XMLID_1_">
	<path id="XMLID_24_" class="st0" d="M107.5,298c-0.8-4,0.8-6.3,4.5-5.9c1.4,0.1,2.5,3.3,4.5,6.1c4.9-1.8,9.6,0.8,14,4.8
		c4.2,3.8,5.2,8,3.8,13.2c-0.5,1.8-0.1,3.8,0.1,5.7c0.6,5.8-0.3,10.8-5.3,14.7c-2.6,2.1-4.6,5-3.1,8.9c0.3,0.7-0.5,1.8-0.7,2.5
		c-12.5-4-20.5-12.2-24.5-24.5c-0.5-1.5-1.7-3-3-4c-4.9-3.6-4.9-6.4-1.5-11.4 M128,314.6c-7.1,0.7-13.6,1.1-20,2
		c-1.1,0.2-2.8,2.4-2.8,3.7c-0.2,8.9,7.6,19.2,16.4,22c3-6.1,6-12.1,9.1-18.4c-1.3,0.1-2.7,0.2-4.7,0.3c2-1.6,3.5-2.9,4.9-4.1
		c-0.2-0.2-0.3-0.5-0.5-0.7c-1.7,0.4-3.3,0.7-5,1.1c-0.1-0.1-0.1-0.3-0.2-0.4c1.7-0.9,3.3-1.8,5-2.7c-0.2-0.4-0.4-0.8-0.5-1.2
		c-1.6,0.5-3.3,1-4.9,1.5c-0.1-0.2-0.2-0.3-0.3-0.5C125.5,316.4,126.6,315.6,128,314.6z"/>
</g>
<g id="XMLID_27_">
	<path id="XMLID_28_" class="st0" d="M399.6,324.7c2.4-3.3,5.2-3.7,7.4-0.7c0.8,1.1-0.7,4.1-1.5,7.4c4.7,2.4,5.9,7.6,5.9,13.6
		c0.1,5.6-2.4,9.2-7.2,11.8c-1.6,0.9-2.9,2.5-4.1,3.9c-3.8,4.3-8.2,7-14.4,6c-3.3-0.5-6.8,0-8.7,3.7c-0.3,0.7-1.6,0.8-2.3,1.2
		c-5.4-11.9-4.9-23.4,1.5-34.6c0.8-1.4,1.1-3.3,0.9-4.9c-0.7-6.1,1.4-7.9,7.4-8.9 M401.3,351c-5.3-4.8-10-9.3-15-13.4
		c-0.9-0.7-3.7-0.5-4.6,0.4c-6.7,5.9-9,18.6-5.2,27c6.5-1.9,13-3.8,19.7-5.8c-0.9-0.9-1.9-1.9-3.4-3.3c2.5,0.4,4.4,0.6,6.3,0.9
		c0.1-0.3,0.1-0.6,0.2-0.8c-1.4-1-2.8-2-4.1-2.9c0.1-0.2,0.1-0.3,0.2-0.5c1.8,0.6,3.6,1.3,5.3,1.9c0.2-0.4,0.3-0.8,0.5-1.2
		c-1.5-0.9-3-1.7-4.5-2.6c0.1-0.2,0.1-0.3,0.2-0.5C398.2,350.4,399.5,350.6,401.3,351z"/>
</g>
<path id="XMLID_16_" class="st0" d="M286.2,309.8c7.6-4.7,10.3-12.6,14.8-19.3c4.1-6.2,5-13.1,4.7-20.4c-0.2-3.7-1.6-5.3-5.3-5.3
	c-7.4,0-14.9-0.4-22.2,5.8c0-5,0-10,0-14.9c-13.7-6.7-26.9-7.6-40.4-15c-6.5-3.5-13.1-14.7-20-17.1c-0.2,6.3-3.3,18.5-4.8,26.3
	c-2.3-1.9-4.6-3.6-6.7-5.5c-4.3-3.7-9.3-4.9-14.5-3.1c-5.6,2-10,5.6-11.2,12.3c-3.3,19.2,4.2,34.3,17.5,47.3
	c1.7,1.6,3.1,3.5,4.9,5.6c-6.3,1.9-9.7,5.9-11.9,11.2c-4.3,10.6-1.9,17.2,7.7,19.9c0.6-1.3,1.3-2.6,2-4.3c0.5,0.9,0.7,1.4,1,1.7
	c1.1,1.3,2.3,2.6,3.5,3.9c1.1-1.3,2.4-2.5,3.4-3.9c0.6-0.9,0.6-2.2,1.1-3.1c2.3-3.8,3-8.6,8.8-9.9c3.2-0.7,6.1-4,8.6-6.6
	c0.9-0.9,0.7-3.5,0.2-4.9c-1-2.8-2.7-5.3-4.1-7.9c0.3-0.2,0.6-0.5,0.9-0.7c2.5,1.7,5.1,3.2,7.5,5.1c0.7,0.6,1.5,2.1,1.2,2.8
	c-1.8,5.5-3.5,11.1-5.9,16.2c-2.8,5.8-7.8,8.5-9.3,17c-2,11.5-5.9,22.9-3.3,34.8c3,12.8,6.4,38.6,20.8,39.4
	c18.7,1.1,24.4,1.4,36.5,0.9c6.9-0.2,12.5-5,16.3-10.6c5.6-5.3,4.7-16.8-2.1-21.5c-4.7-5.1-10.8-5.6-16.6-7.4
	c-8.5-2.5-15.8-6.8-18.8-15.4c-2.4-7-6.2-14-3.9-22c2.1-7.2,3.8-14.5,6-21.7c0.3-0.9,2.4-2,3.2-1.8c1.5,0.4,3.6,1.8,3.7,3
	c0.5,7.3,5.7,10.4,11.4,12.7c4.2,1.7,6.4,4.5,6.5,8.7c0.1,3.7-0.6,7.4-0.6,11.1c0,1.6,0.7,3.2,1.1,4.8c1.4-0.6,5-4.2,6.4-4.8
	c1.3-0.6,1.6-3.3,2-2.8c5.1,5.3,3.2-2.8,8.6,1.2c-4.7-14,2-3.4,1.9-5.1c-0.2-4.3-1.1-8.6-1.6-12.9c-0.5-4.4-2-8.1-6.1-10.3
	c-1.4-0.7-2.4-2.1-3.6-3.3C281.9,316.1,281.5,312.7,286.2,309.8z"/>
<path id="XMLID_40_" class="st1" d="M338.3,260c-1.5-7.7-2.7-14.5-4.2-22.1c-8.4,3.4-15.6,6.3-24,9.7c-0.5-7.3-1-13.2-1.4-19.2
	c0.6,0,1.2-0.1,1.8-0.1c0.9,4.1,1.9,8.3,3,13c5.5-1.9,9.2-3.5,13.2-4.7c10-3,12-2.1,14.3,5.9c1,3.3,1.9,6.7,2.8,10.2
	c17.5-6,20.5-10.4,14-19.9c-3.3,0.4-6.7,0.8-10.3,1.2c-2.3-4.3-4.5-8.4-6.5-12.3c-4.6,0-8.7,0.4-12.5-0.1c-2.2-0.3-5.6-2-5.8-3.2
	c-0.7-7.1-6.2-6.9-12.7-5.8c-2.4,0.4-4.9,0.8-9,1.4c1.6-12.2-6.3-15.6-19.6-14.2c-1.1,0.1-3.7-2.5-3.9-4.1c-1.1-6.8-5-9.9-14.2-8.6
	c-8.4,1.2-13.4-1.1-13.6-8.7c-0.2-6.7-4.9-10.1-14.1-9.2c-5.3,0.5-10.7,0.4-16.3,0.6c-0.9-2.7-1.1-5.4-2.8-7.3
	c-1.6-1.8-4.7-3.9-7.3-3.9c-16-0.4-16.3-0.2-20.6-11.8c-1.9-5.1-5-7-11.8-5.6c-2.3,0.5-16.2-1.9-17.2-0.7
	c-1.1,1.4-17.9-4.7-11.8,2.5c6,7.2-3.6,6.6,12.2,10.4c5.3,1.3,10,4.3,10,4.3c4.3-1.2,8.7-2.5,13.3-3.8c1.7,6,3.2,11.1,4.6,16.2
	c1.1,4.2,2.7,6.1,9.3,4.5c12.3-3,12.2-2.5,16.8,7.6c0.8,1.8,4.4,4,6.8,4.1c7.3,0.4,16.4-2.3,21.5,0.2c4.6,2.3,4.8,9.9,7,15.2
	c0.3,0.8,1,1.6,1.9,2.8c3.8-0.9,7.5-1.9,11.3-2.7c5.3-1.1,8.6-0.5,9.5,4.7c0.5,3.1,3.5,5.9,5.3,8.8l0,0l0,0c0,0,0,0,0.1,0
	c4.7-0.4,9.4-0.8,13.6-1.2c0,6.3,0,12.2,0,18.2c-0.8,0.1-1.7,0.2-2.5,0.3c-1.3-3.6-3.5-7.2-3.8-10.9c-0.3-4.2-2.6-5.9-7.3-6.5
	c0,0,0,0-0.1,0c-1.9,1.6-3.9,3.2-7.1,6c-2.2-6.8-3.8-11.7-5.8-17.7c-6.9,2.3-13.3,4.5-21,7c-1.7-6.6-3.4-13.1-5.3-20.5
	c-7.7,2.2-15,4.3-24.1,6.9c-2.4-6.8-4.7-13.5-7.2-20.7c-6.4,2-12.7,4-20.8,6.6c-2.4-7.6-4.6-14.7-7.1-22.6c-3,1.1-6.1,2.2-9.1,3.3
	c-4.8-1.2-12.2-2.6-13.3-2.4c-1.1,0.1-15.5-4.7-7.6,1.2s15.7,9.3,15.9,9.8s4.4,4.3,4.4,4.3c0.1,0,0.1-0.1,0.2-0.1
	c1.4,2.9,2.2,4.5,2.6,5.3c-1.1,0.3-2.2,0.6-3.2,0.9c0,0.1,0,0.2,0,0.2h-2.1c0,0-14.6,0.9-15.5,0.9s-14.2-7.3-15.5,0
	s2.2,11.6,7.7,12.9c5.5,1.3-4.7-5.2,6.6,1.4c11.3,6.6,16.2,10.7,16.2,10.7c6.7,11.1,6.9,11.1,22.3,7.5c0.8,0.8,1.9,1.6,2.4,2.6
	c1.8,4.4,3.5,8.9,5.1,13.4c1.9,5.1,5.2,7.1,12,4.3c3.7-1.5,8-2.1,12.7-3.3c2.2,3.8,4,7.3,6.2,10.7c2.7,4.1,5.8,7,12.7,3.8
	c8.7-3.9,11.7-3.1,13.8,4.7c1.7,6.4,4.6,9.2,12.7,6.7c6,8.6,6,8.6,17.7,4.8c1.7-0.5,3.6-0.7,5.7-1.1c2,6.2,3.9,11.9,6.1,18.5
	c7.6-3.2,13.7-5.8,19.8-8.5c3.5,7.1,6.8,13.6,10,20c2,4,4.7,4.1,8.2,1.1c2.8-2.4,5.6-4.7,9.4-7.7c3.4,6.6,6.2,12,9.9,19.1
	c8.7-18.7,7.1-35.7,4.3-53.3C350.6,255.2,344.9,257.4,338.3,260z M203.6,208c-0.6,0.2-1.2,0.4-1.8,0.7c-2.1-3.1-4.2-6.2-6.5-9.7
	c-4.9,1.3-10,2.6-15.1,3.9c-0.4-0.9-0.8-1.8-1.2-2.7c5.9-2.2,11.7-4.5,18.3-7 M229.5,229.2c-1.3-2.6-3.9-6.2-4.9-10.1
	c-1.3-4.9-4.1-5.1-9.1-3.4c-2.7,0.9-5.8,1.1-8.7,1.6c-0.4-1-0.7-1.9-1.1-2.9c7.3-3,14.7-5.9,23.1-9.4c1.8,7.9,3.5,14.8,5.3,22.4
	c4.4-1.7,8.1-3,11.8-4.6c8-3.3,9.4-2.9,11.5,4c0.4,1.3,0.5,2.6,0.9,4.9C249.3,218.6,239.7,232.3,229.5,229.2z M295.9,241.2
	c1.3,5.7,2.1,10.4,3.4,15.1c0.5,1.9,1.9,3.6,3,5.4c0.1,0,0.2,0,0.3,0c3.8-1.8,7.7-3.6,11.6-5.3c7.2-3.2,9.4-2.5,10.7,4
	c1,5,1.6,10.1,2.5,15.7c3.9-1.6,7.1-2.9,10.2-4.1c0.2,0.2,0.4,0.5,0.6,0.7c-2.8,2.4-5.5,4.7-9.7,8.3c-2.2-5.7-4.5-10.2-5.8-14.8
	c-2.4-8.7-3.1-9.1-13.2-5.7c-2.2,0.7-4.6,0.9-6.9,1.3c-0.1,0-0.1,0.1-0.2,0.1c0,0,0,0,0-0.1h-0.1c-3.6,2-4.5,1.7-5.4-2
	c-1.1-4.5-2.1-8.9-3.3-14.1c-7.1,2.9-12.6,5.1-19.2,7.9c-2.1-6.6,4.2-17.9-14.5-13.7c0.2-0.8,0.5-1.6,0.7-2.3
	c3.3-1.1,9.3-3.6,9.5-3.2c3.5,4.4,6.2,9.2,9.4,14.2"/>
<path id="XMLID_9_" class="st1" d="M168.5,195.5"/>
</svg>
