<?xml version="1.0" encoding="utf-8"?>
<!-- Generator: Adobe Illustrator 19.0.0, SVG Export Plug-In . SVG Version: 6.00 Build 0)  -->
<svg version="1.1" id="Layer_1" xmlns="http://www.w3.org/2000/svg" xmlns:xlink="http://www.w3.org/1999/xlink" x="0px" y="0px"
	 viewBox="0 0 504 504" style="enable-background:new 0 0 504 504;" xml:space="preserve">
<style type="text/css">
	.st0{fill:#B2826D;}
	.st1{fill:#D36027;}
	.st2{fill:#FFFFFF;}
	.st3{fill:#B2B2B2;}
	.st4{fill:#AAAAAA;}
</style>
<g>
	<path d="M114.9,276.5c-6.8-6.3-8.9-14.7-9.7-23.4c-2.5-25.4,9-43.3,33.3-52.1c3.4-1.2,6.9-2.2,11.8-3.7c-2.7-1.9-4.5-3.4-6.6-4.4
		c-3.8-1.9-4.8-4.6-1.4-7.1c4-3,8.9-4.9,13.4-7.4c1.4-0.8,3.4-1.8,3.9-3.1c8.6-24.6,27.4-37.1,51.7-42c12.6-2.5,25.8-2.7,38.7-3.8
		c3.1-0.3,6.3,0,9.2,0c0.5-0.6,0.9-0.8,0.9-1.1c-1.7-9.1,2.7-14.4,10.3-18.7c4.6-2.6,8.2-7,11.9-11c3.1-3.3,9.9-3.5,14.1,0.1
		c3.6,3,3.9,7.2-0.3,10.8c-5.6,4.9-11.7,9.3-17.9,13.4c-2.5,1.7-3.5,3.1-2.4,6.8c6.4,0,13.1-0.1,19.7,0c14.6,0.3,28.9,2.2,42.5,7.8
		c26.4,10.8,40.8,32.3,40.8,61.6c0,7.6-0.4,15.4-2,22.8c-1.1,4.9-4.3,9.6-7.6,13.5c-2.1,2.5-2.8,4.3-2.3,7.3
		c3.6,21.8,5.2,43.6,0.7,65.6c-6.2,30.3-23,51.5-52.7,61.7c-0.5,0.2-0.9,0.4-1.3,0.7c-0.1,0.1-0.2,0.2-0.6,0.7
		c1.7,4.4,3.2,9.1,5.2,13.6c0.5,1,2.3,1.5,3.5,2.1c5.4,2.9,11,5.4,16,8.8c1.8,1.2,3,5.2,2.3,7.3c-0.5,1.7-4.1,3.5-6.3,3.6
		c-5.1,0.1-10.2-0.7-15.4-1.2c-2.6-0.3-5.2-1.1-7.9-1.1c-6.8,0-9.5-2-8.6-8.8c1-8-4.1-11.8-9-15.9c-1-0.8-3.5-1-4.3-0.3
		c-3.3,2.6-6.3,5.7-9.2,8.7c-1.1,1.2-1.6,2.9-2.5,4.3c-5.6,8.6-13.6,8.7-18.9-0.1c-3.1-5.2-5.7-10.7-11.8-13
		c-1.6-0.6-4.2-0.5-5.6,0.5c-2.6,1.8-4.7,4.2-6.7,6.6c-2.2,2.7-3.1,5.3-1.1,9c3.1,5.7,0.4,9.8-6,10.2c-11.3,0.7-22.6,1.4-33.8,1.6
		c-2.6,0-5.2-1.9-7.8-2.9c1.4-2.5,2.2-6.2,4.3-7.2c6.5-3.2,13.5-5.4,20.2-8.1c1.5-0.6,4-2.2,3.9-3.1c-0.4-3.2,3.1-7.5-2-9.5
		c-12.5-5-21-14.5-27.9-25.5c-5.2-8.2-10.5-16.2-19.1-21.4c-1.4-0.8-2.9-3.4-2.6-4.7c0.3-1.3,2.8-2.2,4.5-2.9c1-0.4,2.3-0.3,4.4-0.5
		c-2.3-5.5-4.5-10.5-6.6-15.6c-0.6-1.5-1.4-3.1-1.4-4.7c0.4-14.7-16.7-29.3-30.6-25.8c-3.7,0.9-5.9-1.1-5.6-5.1
		c0.1-1.1,0.5-2.3,0.8-3.4c0.2-0.9,0.6-1.8,0.8-2.7c-0.4-0.4-0.9-0.7-1.3-1.1c-3.7,4.1-7.5,8.2-12.1,13.2 M180.7,308.7
		c7-0.9,13.7-4.1,21-1.8c7.6,2.4,15.3,4.3,22.8,6.8c2.7,0.9,4,3,3.4,6.3c-1.9,11.3-3.5,22.7-5.4,34c-1.9,10.9-4.3,21.8-5.8,32.8
		c-0.5,3.6-1.6,4.8-4.8,5.4c-5.2,1.1-10.4,2.3-15.3,4.2c-3.1,1.2-5.6,3.8-8.4,5.8c0.5,0.6,0.9,1.2,1.4,1.8c2.7-2.3,5.4-4.6,8-6.8
		c0.3,0.3,0.5,0.6,0.8,0.9c-0.9,1.6-1.9,3.1-2.8,4.7c10.6-0.3,20.7-0.6,30.8-0.9c4.1-0.1,4.6-3.2,2.9-5.5c-3.6-4.7-1.3-8.5,1.5-11.5
		c5.1-5.3,10.9-10,16.4-14.9c-0.7-0.6-2.2-1.7-3.6-2.9c0.1-0.3,0.3-0.6,0.4-0.9c1.9,0.4,3.9,0.9,6.7,1.5c-7.8-14.3-5.9-28.7-3-41.8
		c-1.6-2.4-3-3.7-3.5-5.3c-1.3-4.6-2-9.4-3.2-14.1c-0.4-1.5-1-3.6-2-4c-9.8-4.2-18.5-12.7-30.9-7.7c-2.9,1.2-6.6,0.1-9.9,0.1
		c-1.6,0-3.1,0-4.8,0c0,3.4,0,6.3,0,9.2c-0.4,0-0.8,0-1.2,0c-0.2-1.9-0.1-3.9-0.6-5.7c-0.5-2.2-1.2-5.9-2.3-6.1
		c-4.4-0.8-4.5-4.1-5.7-7.1c-0.3-0.9-1.6-1.4-2.4-2.1c-0.7,1-1.7,2-1.9,3.1c-0.8,6.6-0.7,6.6-7.3,6.1c-1-0.1-2.1-0.4-3-0.1
		c-0.9,0.3-1.7,1.2-2.5,1.8c0.8,0.6,1.7,1.7,2.5,1.7c2.4,0,4.8-0.4,6.8-0.6C177.5,299.5,179.1,304.2,180.7,308.7
		c-4-3.3-7.7-2.3-11.4,1.1c1.4,0.8,2.9,1.2,4.4,0.9C176,310.3,178.3,309.4,180.7,308.7z M193.8,286.2c1.2,1,2.5,3,3.6,3
		c3.1-0.2,6.3-1,9.1-2.3c0.9-0.5,1.3-3.5,0.9-5.1c-1.2-5.1-5-3.2-8.5-3c0.2,4.1-0.6,7.3-5.3,7.6c1.2-4.3,2.3-8.6,3.5-12.8
		c0.3-1.2,0.6-2.6,1.4-3.6c2.6-3.1,5.4-6.1,8.1-9.1c-0.6-0.1-1.3-0.2-1.9-0.4c-0.3-3.7-1.6-7.7-0.6-11c2.4-7.9,6-15.4,9-23.1
		c0.6-1.6,1.1-3.9,0.5-5.4c-5.7-14.1-14.8-25.6-27.7-33.8c-11.7-7.5-24-9.5-36.8-2.7c-2.1,1.1-3.8,2.8-6.3,4.7
		c5.9,2.1,9.4,5,10.1,10.9c-15.5,3.7-30.1,9-38.7,23.3c-8.7,14.4-7.7,29.3-1.4,45.3c1.4-7.4,6.2-11,12.7-10.8
		c0.1-1.2,0.2-2.3,0.3-3.5c2.3,0.2,4.6,0.5,7.2,0.8c0.1-4,3-4.1,6.4-4.1c2.1,0,4.3-0.6,6.3-1.2c6.7-2,7.4-4,3.7-9.9
		c-0.5-0.8-0.7-1.7-1.1-2.5c0.2-0.5,0.5-0.9,0.7-1.4c3.9,1.3,8,2.3,11.7,4.1c9.8,4.7,14.6,13.9,19.2,22.9c2.3,4.6,7.1,9.6,2.6,14.4
		C186.4,280.4,190.1,283.3,193.8,286.2z M241.8,281.3c-1.3,4.3-2.7,8.5-3.7,12.8c-0.7,2.8,0.7,4.8,3.7,5.5c4.7,1.1,9.3,2.7,14.1,3.1
		c8.2,0.8,16.4,1,24.6-2.3c-4.7-2-9.5-3.4-14.4-4.3c-5.1-1-10.3-1.5-15.5-2.3c1.1-8.8,6.6-12,13.7-8.4c2.4,1.2,4.4,3,6.7,4.4
		c5.9,3.6,11.6,8,17.9,10.5c4.1,1.6,9.4,1.2,14,0.6c3.9-0.5,7.6-2.4,11.3-3.9c1.5-0.6,2.8-1.7,4.2-2.6c-0.2-0.6-0.5-1.1-0.7-1.7
		c-3.7,0.7-7.4,1.4-11.1,2.1c5.8-5,6.3-8.1,2.1-11.5c-1.5-1.2-2.4-3.2-3.6-4.9c2-0.9,4-1.9,6-2.7c0.7-0.3,1.7-0.3,2.5-0.1
		c2.2,0.8,4.4,1.7,6.5,2.6c-1.3,1.9-2.6,3.9-3.9,5.8c-1.5,2.1-3,4.3-5,7.2c4.9,0.9,8.5,1.8,9.1-2.8c0.8-5.5,1.5-11.2,1-16.8
		c-0.6-7.4-2.2-14.8-3.5-22.1c-1.8-9.9-1.9-20.2-7.8-29.1c-7.2-10.9-16.6-19.4-27.3-26.7c-1.5-1-2.7-2.4-4.2-3.4
		c-1.2-0.8-2.6-2.2-3.7-2c-3.7,0.7-6.2,0.2-6.5-5.6c-7.2,4.2-13.5,7.9-20.5,12c-0.6-5.7-1.1-10.9-1.8-16.1c-0.6-4.6-2.6-6.1-6.6-4
		c-3.6,1.8-7,4.5-9.9,7.3c-6,5.8-6,7.7-1.8,14.6c0.9,1.4,1.6,3,2.6,4.2c3.3,3.9,2.7,6.6-0.9,10.4c-10.6,11.1-18.6,23.9-21.4,39.3
		c-0.3,1.7-0.4,4.3,0.6,5c4.6,3.4,2.4,6.2-0.3,9c-3.4,3.5-3.2,6.8,0,10.4c6.9,8,14.7,15,24.2,19.8c1.2,0.6,2.6,1,2.6,1
		C237.4,290.6,239.6,286,241.8,281.3z M333.5,235.7c-4.8,2-9.4,3.9-14.1,5.9c0.9,1.2,1.1,1.6,1.4,1.7c11.8,5.3,13.6,13.6,4.9,22.9
		c-0.6,0.7-1.3,1.6-1.4,2.4c-0.1,7.2-0.1,14.5-0.1,22.6c4.1-1.3,7.9-2.1,9.4-6.7c1.1-3.6,3.3-6,7.3-5.2c4,0.7,4.6,3.8,4.5,7.2
		c0,0.7,0.2,1.5,0.3,2.3c2.4-0.3,4.5-1.2,6.2-0.7c2.2,0.7,5.2,2.3,5.9,4.1c1.1,3.1,1.4,6.9,0.7,10.2c-0.7,3.6-2.4,7.2-4.5,10.2
		c-1,1.4-4.2,2.2-6.2,1.9c-5.2-0.8-10.3-2.3-15.4-3.7c-10.9-2.9-20.8,1.4-31.1,3.9c0.3,1.3,0.3,2,0.5,2.6c3.3,12.3,6,24.6,1.8,37.3
		c-0.2,0.7-0.2,1.7,0.2,2.3c2.4,3.5,4.9,7,7.5,10.5c22.1-7.1,38.4-20.4,47.1-41.9c11.2-27.7,9.5-56.1,4.2-84.6
		c-0.2-1-0.9-2.3-1.7-2.8c-8.6-4.5-17.6-7.5-27.5-8.6C333.5,232.1,333.5,233.9,333.5,235.7z M252.6,317.6c-0.8,2.6-1.3,4-1.6,5.4
		c-2.8,11.5-5.1,23.1-1.7,34.9c3.6,12.3,4.6,13,17.2,13.1c3,0,6,0,9-0.3c19.2-1.9,29.2-13.5,27.1-32.7c-1-9-3.3-17.9-5.9-26.7
		c-2.2-7.5-6.2-9-14-7.4c-5.7,1.1-11.5,2-17.3,2c-7.2,0-14.4-1.1-22.5-1.8c1,5.2,2.1,10.6,3.1,16C248.5,319.2,250,318.7,252.6,317.6
		z M333.8,404.3c-1.5-2.7-2.3-4.3-3.1-5.8c0.2-0.2,0.5-0.4,0.7-0.6c1.8,1.1,3.6,2.3,6.5,4.2c-3.4-5.5-7.2-8.9-11.8-9.6
		c-9.1-1.5-13-7-14.7-15.3c-0.5-2.4-1.8-4.7-3-6.8c-1.9-3.4-4-6.6-5.8-9.6c-5.3,4.2-9.9,7.9-14.1,11.2c4.2,3.7,8.9,7.4,13,11.7
		c1.8,1.9,3.4,4.8,3.7,7.3c1,8.8,0.7,8.9,9.3,10.3C320.5,402.4,326.5,403.3,333.8,404.3z M327.3,294.4c-10,4.1-19.7,8.1-29.7,12.2
		c0.1,0.4,0.4,1.3,0.8,2.2c0.4,0.9,0.9,1.7,1.4,2.5c0.7-0.1,1.2,0,1.7-0.2c15.3-5.3,30.6-6.6,46-0.3c1.2,0.5,2.9-0.4,4.4-0.7
		c-0.1-0.7-0.1-1.4-0.2-2.1c-3.4-0.5-6.7-1-10-1.5c0.9-3.8,1.9-7.8,2.9-12c1.3,0.4,2.7,1.2,4.1,1.1c1.9-0.2,3.8-1,5.6-1.6
		c-1.8-0.6-3.6-1.7-5.4-1.7c-6.7,0.1-6.6,0.2-7.2-6.4c-0.1-1-0.8-2.1-1.5-2.8c-0.3-0.3-2,0.1-2.1,0.5c-1.2,4.4-4,7.2-7.6,10
		c-1.5,1.1-1,4.7-1.5,7.1c-0.2,1.1-0.4,2.2-0.7,3.4c-0.4-0.1-0.8-0.1-1.2-0.2C327.3,301.2,327.3,298.4,327.3,294.4z M248.1,374.2
		c4.7,6.3,8.7,11.5,12.4,16.8c3.9,5.6,8.9,5.7,12.8,0.2c3.8-5.2,7.6-10.4,12.1-16.5C273,373.8,260.4,373.6,248.1,374.2z
		 M298.8,201.5c2.5-4.1,5.1-7.7,6.8-11.7c0.7-1.6,0.1-5.3-1.1-6c-3.9-2.3-8.5-5.2-12.5-4.7c-2.3,0.2-4.2,6.3-5.9,9.9
		c-0.4,0.8,0.1,2.7,0.8,3.3C290.6,195.3,294.4,198.1,298.8,201.5z M271.8,133.6c-11.2,0-21.9,0-33.2,0
		C243.4,138.1,268,137.8,271.8,133.6z M323.4,264.5c4.9-2.9,6.4-6.9,5.4-11.6c-0.9-4.2-3.5-7.2-8.7-7.8
		C321.2,251.5,322.3,257.6,323.4,264.5z M291.4,132.7c1.6,3.2,19.1,6.7,26.2,6.3c1.2-0.1,2.3-1.1,3.5-1.7c-0.1-0.5-0.2-1-0.3-1.6
		C311,134.7,301.2,133.7,291.4,132.7z M272.5,294.9c0.2-0.3,0.4-0.6,0.7-0.9c-3.5-2.4-6.8-5.2-10.5-7.1c-5.1-2.5-8.5-0.5-9.7,5.3
		C259.6,293.1,266.1,294,272.5,294.9z M355.5,152.4c-7.6-7.2-17.3-11.5-27.8-14.5c-0.9-0.3-2.2,0.7-3.3,1.1
		C335.2,143.7,345.6,148.2,355.5,152.4z M131.9,271.1c3.6,0,7.1,0,10.1,0c-1.4-4.4-3.3-8.6-10.1-8.4
		C131.9,265.6,131.9,268.4,131.9,271.1z M195,141.5c0.2,0.8,0.5,1.7,0.7,2.5c7.1-2.2,14.3-4.4,21.4-6.7c-0.2-0.8-0.5-1.5-0.7-2.3
		C209.3,137.2,202.1,139.4,195,141.5z M174.6,303.7c-0.6-5.9-4.3-4.4-6.9-4.2c-0.7,0-2,2.2-1.7,2.8C168.1,307,171.3,303,174.6,303.7
		z M346.3,303.2c2,0.5,3.8,1.3,5.5,1.3c1,0,2.3-1,3-2c0.4-0.5,0.1-2-0.4-2.6C352.5,297.9,347.6,299.6,346.3,303.2z M275.3,136.3
		c4.3,0,7.8,0,11.9,0C283.3,132.1,279.3,132,275.3,136.3z M222,137.6c4.4-0.3,8.5-0.5,13-0.8C231.5,132.4,225.5,132.9,222,137.6z
		 M319,233.2c2.3-1.7,4.1-3.1,7.1-5.3c-3.7-0.3-6-0.5-8.8-0.7C318,229.6,318.4,231.1,319,233.2z"/>
	<path class="st0" d="M241.8,281.3c-2.2,4.6-4.4,9.3-7,14.6c0,0-1.4-0.4-2.6-1c-9.5-4.8-17.2-11.8-24.2-19.8
		c-3.2-3.7-3.4-6.9,0-10.4c2.7-2.8,4.9-5.6,0.3-9c-0.9-0.7-0.9-3.4-0.6-5c2.8-15.4,10.8-28.2,21.4-39.3c3.6-3.8,4.3-6.5,0.9-10.4
		c-1.1-1.2-1.8-2.8-2.6-4.2c-4.2-7-4.2-8.9,1.8-14.6c2.9-2.9,6.3-5.5,9.9-7.3c4.1-2.1,6-0.6,6.6,4c0.7,5.2,1.1,10.4,1.8,16.1
		c7-4.1,13.3-7.8,20.5-12c0.2,5.7,2.8,6.3,6.5,5.6c1.1-0.2,2.6,1.1,3.7,2c1.5,1,2.7,2.4,4.2,3.4c10.6,7.3,20.1,15.8,27.3,26.7
		c5.9,8.9,6,19.2,7.8,29.1c1.3,7.4,3,14.7,3.5,22.1c0.4,5.5-0.2,11.2-1,16.8c-0.7,4.5-4.2,3.6-9.1,2.8c2-2.9,3.6-5,5-7.2
		c1.3-1.9,2.6-3.9,3.9-5.8c-2.2-0.9-4.3-1.9-6.5-2.6c-0.7-0.3-1.7-0.2-2.5,0.1c-2,0.8-4,1.8-6,2.7c1.2,1.7,2.1,3.6,3.6,4.9
		c4.2,3.4,3.7,6.5-2.1,11.5c-4.4,2.1-8.6,2.1-13.2-0.3c-7.3-3.9-12.5-9.6-16.8-16.4c-3.9-8.2-10.5-6.7-16.9-4.6
		c-1.3-1.5-2.4-2.8-3.5-4c0.7-0.1,1.3-0.2,3.3-0.4c-6.9-3.2-10.4-7.4-9-15.2c-4.5,7.6-2.2,12.7,5.9,15.7c-0.8,1-1.6,2-2.4,3.1
		C249.9,275.5,245.9,278.4,241.8,281.3z M278.4,246.9c-0.6-1-1.2-1.9-1.9-2.9c-5.6-4.7-12-5-17.7-0.8c-5.6,4.2-7.6,11.3-4.9,17.8
		c2.4,5.9,9,9.8,15.1,9c6.8-0.9,12.5-6.5,13-13.1C282.3,253.2,282.5,249.2,278.4,246.9z M259.6,234.5c3.8,1.1,7,1.7,9.9,2.9
		c3.2,1.3,6.2,3.1,9.3,4.7c2.1,1.1,3.9,2.4,5.9-0.5c1.8-2.5,2-4.3-0.3-6.4c-2.3-2.1-4.4-4.5-6.6-6.7c-7.2-6.8-10.7-6.4-16,1.9
		C260.9,231.8,260.3,233.3,259.6,234.5z M235.9,201.8c6.5-4.3,8.9-12.3,6.1-18.6c-0.3-0.7-1.3-1.5-2.1-1.6c-3.4-0.4-10,6.4-9,9.6
		C232.2,194.8,234.2,198.2,235.9,201.8z M247.5,267.3c-1.8-4-3.2-7-4.9-10.8C240.9,261.9,242,265,247.5,267.3z"/>
	<path class="st0" d="M193.7,286.2c-3.7-2.9-7.3-5.8-11.2-8.9c4.5-4.8-0.3-9.8-2.6-14.4c-4.6-9-9.4-18.2-19.2-22.9
		c-3.7-1.8-7.8-2.7-11.7-4.1c-0.2,0.5-0.5,0.9-0.7,1.4c0.4,0.8,0.6,1.8,1.1,2.5c3.7,5.9,3,7.9-3.7,9.9c-2.1,0.6-4.2,1.2-6.3,1.2
		c-3.4,0-6.4,0.1-6.4,4.1c-2.6-0.3-4.9-0.5-7.2-0.8c-0.1,1.2-0.2,2.3-0.3,3.5c-6.6-0.2-11.3,3.4-12.7,10.8
		c-6.2-16-7.3-30.9,1.4-45.3c8.7-14.3,23.3-19.6,38.7-23.3c-0.7-5.9-4.2-8.8-10.1-10.9c2.5-1.9,4.2-3.6,6.3-4.7
		c12.8-6.8,25.1-4.8,36.8,2.7c12.9,8.2,22,19.7,27.7,33.8c0.6,1.5,0.1,3.7-0.5,5.4c-2.9,7.7-6.6,15.2-9,23.1c-1,3.3,0.3,7.3,0.6,11
		c0.6,0.1,1.3,0.2,1.9,0.4c-2.7,3-5.5,6-8.1,9.1c-0.8,0.9-1,2.4-1.4,3.6c-1.2,4.3-2.4,8.6-3.5,12.8L193.7,286.2z"/>
	<path class="st1" d="M333.5,235.7c0-1.8,0-3.6,0-6c9.9,1.1,19,4.1,27.5,8.6c0.8,0.4,1.5,1.8,1.7,2.8c5.3,28.5,7,56.9-4.2,84.6
		c-8.7,21.5-25,34.8-47.1,41.9c-2.5-3.5-5.1-7-7.5-10.5c-0.4-0.6-0.5-1.6-0.2-2.3c4.2-12.7,1.4-25-1.8-37.3
		c-0.2-0.6-0.2-1.3-0.5-2.6c10.3-2.4,20.2-6.7,31.1-3.9c5.1,1.3,10.2,2.9,15.4,3.7c2,0.3,5.1-0.5,6.2-1.9c2.1-3,3.8-6.6,4.5-10.2
		c0.6-3.3,0.4-7.1-0.7-10.2c-0.7-1.9-3.6-3.4-5.9-4.1c-1.7-0.6-3.9,0.4-6.2,0.7c-0.1-0.8-0.4-1.6-0.3-2.3c0.1-3.4-0.6-6.5-4.5-7.2
		c-4.1-0.7-6.2,1.7-7.3,5.2c-1.5,4.7-5.3,5.4-9.4,6.7c0-8.2,0-15.4,0.1-22.6c0-0.8,0.7-1.7,1.4-2.4c8.7-9.3,6.9-17.6-4.9-22.9
		c-0.3-0.1-0.4-0.5-1.4-1.7C324.2,239.6,328.7,237.7,333.5,235.7z"/>
	<path class="st2" d="M252.6,317.6c-2.6,1-4.1,1.6-6.5,2.5c-1.1-5.5-2.1-10.8-3.1-16c8.1,0.7,15.3,1.8,22.5,1.8
		c5.8,0,11.6-0.9,17.3-2c7.8-1.5,11.9-0.1,14,7.4c2.5,8.7,4.9,17.7,5.9,26.7c2.1,19.2-7.9,30.8-27.1,32.7c-3,0.3-6,0.3-9,0.3
		c-12.6,0-13.6-0.8-17.2-13.1c-3.4-11.8-1.1-23.4,1.7-34.9C251.3,321.7,251.8,320.3,252.6,317.6z M270.5,319.7
		c-0.2-0.1-0.4-0.2-0.6-0.3c-0.5,1.2-1.4,2.3-1.6,3.5c-0.2,1.5,0.1,3.1,0.2,4.7c1.5-0.2,3.2,0,4.6-0.6c1.8-0.7,3.3-1.9,5-2.9
		c0,0.5,0,1,0,1.5c3,0.4,8,1.9,8.5,1c1.8-3.3,0.5-6.9-3.2-9.8c0.6,3,1.1,5.4,1.6,7.8c-0.2,0.4-0.5,0.7-0.7,1.1
		c-5-6-9.5-3.3-14.5,0.9C270.1,323.5,270.3,321.6,270.5,319.7z"/>
	<path class="st0" d="M180.7,308.8c-1.6-4.7-3.2-9.3-4.8-13.9c-2,0.2-4.4,0.7-6.8,0.6c-0.8,0-1.7-1.1-2.5-1.7
		c0.8-0.6,1.6-1.5,2.5-1.8c0.9-0.3,2,0,3,0.1c6.6,0.4,6.5,0.4,7.3-6.1c0.1-1.1,1.2-2,1.9-3.1c0.8,0.7,2,1.2,2.4,2.1
		c1.2,3,1.3,6.3,5.7,7.1c1.1,0.2,1.8,3.9,2.3,6.1c0.4,1.9,0.4,3.8,0.6,5.7c0.4,0,0.8,0,1.2,0c0-2.9,0-5.8,0-9.2c1.6,0,3.2,0,4.8,0
		c3.3,0,7.1,1,9.9-0.1c12.3-5,21,3.6,30.9,7.7c1.1,0.4,1.7,2.6,2,4c1.1,4.7,1.9,9.4,3.2,14.1c0.4,1.6,1.9,2.9,3.5,5.3
		c-2.9,13.1-4.9,27.4,3,41.8c-2.8-0.6-4.8-1.1-6.7-1.5c-0.1,0.3-0.3,0.6-0.4,0.9c1.5,1.2,2.9,2.3,3.6,2.9
		c-5.5,4.9-11.3,9.6-16.4,14.9c-2.9,3-5.1,6.8-1.5,11.5c1.7,2.3,1.2,5.4-2.9,5.5c-10.1,0.3-20.1,0.6-30.8,0.9c1-1.6,1.9-3.2,2.8-4.7
		c-0.3-0.3-0.5-0.6-0.8-0.9c-2.7,2.3-5.4,4.6-8,6.8c-0.5-0.6-0.9-1.2-1.4-1.8c2.8-2,5.3-4.5,8.4-5.8c4.9-1.9,10.1-3.1,15.3-4.2
		c3.2-0.7,4.3-1.9,4.8-5.4c1.5-11,3.9-21.8,5.8-32.8c1.9-11.3,3.5-22.7,5.4-34c0.6-3.3-0.7-5.5-3.4-6.3c-7.5-2.5-15.3-4.3-22.8-6.8
		C194.3,304.6,187.6,307.9,180.7,308.8L180.7,308.8z"/>
	<path class="st2" d="M241.8,281.3c4-2.9,8.1-5.8,12.1-8.8c1.6,0.5,3.2,1,4.8,1.5c-0.1,0.5-0.2,1.1-0.4,1.6c6.9-4,13-3.8,18.2,2.4
		c4.3,6.8,9.5,12.5,16.8,16.4c4.6,2.4,8.7,2.4,13.2,0.3c3.7-0.7,7.4-1.4,11.1-2.1c0.2,0.6,0.5,1.1,0.7,1.7c-1.4,0.9-2.7,2-4.2,2.6
		c-3.7,1.5-7.4,3.4-11.3,3.9c-4.6,0.6-9.9,1.1-14-0.6c-6.4-2.5-12-6.9-17.9-10.5c-2.3-1.4-4.3-3.2-6.7-4.4
		c-7.2-3.6-12.6-0.4-13.7,8.4c5.2,0.7,10.4,1.3,15.5,2.3c4.9,0.9,9.7,2.3,14.4,4.3c-8.1,3.3-16.4,3.1-24.6,2.3
		c-4.8-0.5-9.4-2.1-14.1-3.1c-3-0.7-4.3-2.6-3.7-5.5C239.2,289.8,240.6,285.6,241.8,281.3z"/>
	<path class="st0" d="M333.8,404.3c-7.3-1.1-13.3-1.9-19.3-2.9c-8.6-1.4-8.4-1.5-9.3-10.3c-0.3-2.6-1.9-5.4-3.7-7.3
		c-4.1-4.2-8.8-7.9-13-11.7c4.2-3.4,8.8-7,14.1-11.2c1.8,2.9,3.9,6.2,5.8,9.6c1.2,2.2,2.5,4.4,3,6.8c1.8,8.2,5.6,13.8,14.7,15.3
		c4.7,0.8,8.5,4.1,11.8,9.6c-3-1.9-4.8-3-6.5-4.2c-0.2,0.2-0.5,0.4-0.7,0.6C331.5,400.1,332.3,401.6,333.8,404.3z"/>
	<path class="st0" d="M327.3,294.4c0,3.9,0,6.7,0,9.6c0.4,0.1,0.8,0.1,1.2,0.2c0.2-1.1,0.5-2.2,0.7-3.4c0.4-2.4,0-6,1.5-7.1
		c3.5-2.8,6.3-5.6,7.6-10c0.1-0.4,1.8-0.8,2.1-0.5c0.7,0.7,1.4,1.8,1.5,2.8c0.6,6.6,0.5,6.4,7.2,6.4c1.8,0,3.6,1.1,5.4,1.7
		c-1.9,0.5-3.7,1.4-5.6,1.6c-1.3,0.1-2.8-0.7-4.1-1.1c-1,4.2-2,8.2-2.9,12c3.2,0.5,6.6,1,10,1.5c0.1,0.7,0.1,1.4,0.2,2.1
		c-1.5,0.3-3.2,1.2-4.4,0.7c-15.4-6.3-30.7-5-46,0.3c-0.4,0.2-1,0.1-1.7,0.2c-0.5-0.8-1-1.7-1.4-2.5c-0.4-0.9-0.6-1.8-0.8-2.2
		C307.7,302.5,317.3,298.5,327.3,294.4z"/>
	<path class="st0" d="M248.1,374.2c12.3-0.6,25-0.4,37.3,0.5c-4.5,6.1-8.4,11.2-12.1,16.5c-3.9,5.5-8.9,5.4-12.8-0.2
		C256.7,385.7,252.8,380.5,248.1,374.2z"/>
	<path class="st3" d="M298.8,201.5c-4.4-3.4-8.2-6.2-11.9-9.2c-0.7-0.6-1.2-2.5-0.8-3.3c1.8-3.6,3.6-9.6,5.9-9.9
		c4-0.4,8.6,2.5,12.5,4.7c1.2,0.7,1.8,4.4,1.1,6C303.9,193.8,301.3,197.4,298.8,201.5z"/>
	<path class="st1" d="M271.8,133.6c-3.8,4.2-28.4,4.5-33.2,0C249.9,133.6,260.6,133.6,271.8,133.6z"/>
	<path class="st2" d="M323.4,264.5c-1.2-6.9-2.2-12.9-3.3-19.5c5.2,0.6,7.8,3.6,8.7,7.8C329.8,257.6,328.4,261.5,323.4,264.5z"/>
	<path class="st1" d="M291.4,132.7c9.8,1,19.6,2,29.3,3c0.1,0.5,0.2,1,0.3,1.6c-1.1,0.6-2.3,1.7-3.5,1.7
		C310.6,139.4,293.1,136,291.4,132.7z"/>
	<path class="st2" d="M272.5,294.9c-6.5-0.9-13-1.8-19.5-2.7c1.2-5.8,4.6-7.8,9.7-5.3c3.7,1.9,7,4.7,10.5,7.1
		C273,294.3,272.8,294.6,272.5,294.9z"/>
	<path class="st0" d="M193.6,286.3c4.7-0.2,5.4-3.5,5.3-7.6c3.5-0.2,7.3-2.1,8.5,3c0.4,1.6,0,4.6-0.9,5.1c-2.8,1.4-6,2.1-9.1,2.3
		c-1.1,0.1-2.4-1.9-3.6-2.9C193.7,286.2,193.6,286.3,193.6,286.3z"/>
	<path class="st1" d="M355.5,152.4c-9.9-4.3-20.3-8.7-31.1-13.4c1.1-0.4,2.4-1.3,3.3-1.1C338.1,140.9,347.9,145.3,355.5,152.4z"/>
	<path class="st0" d="M131.9,271.1c0-2.7,0-5.5,0-8.4c6.8-0.2,8.7,4,10.1,8.4C139,271.1,135.5,271.1,131.9,271.1z"/>
	<path class="st1" d="M195,141.5c7.1-2.1,14.3-4.3,21.4-6.4c0.2,0.8,0.5,1.5,0.7,2.3c-7.1,2.2-14.3,4.4-21.4,6.7
		C195.5,143.2,195.2,142.3,195,141.5z"/>
	<path class="st0" d="M174.6,303.7c-3.3-0.7-6.5,3.3-8.6-1.4c-0.3-0.6,1-2.7,1.7-2.8C170.3,299.3,173.9,297.8,174.6,303.7z"/>
	<path class="st0" d="M346.3,303.2c1.2-3.6,6.2-5.3,8.1-3.2c0.5,0.6,0.8,2.1,0.4,2.6c-0.7,0.9-2,2-3,2
		C350.1,304.5,348.4,303.7,346.3,303.2z"/>
	<path class="st1" d="M275.3,136.3c4-4.3,7.9-4.2,11.9,0C283.2,136.3,279.6,136.3,275.3,136.3z"/>
	<path class="st1" d="M222,137.6c3.4-4.6,9.5-5.1,13-0.8C230.5,137,226.4,137.3,222,137.6z"/>
	<path class="st0" d="M180.7,308.7c-2.4,0.7-4.7,1.6-7.1,2c-1.4,0.3-2.9-0.2-4.4-0.9C173,306.4,176.7,305.4,180.7,308.7
		C180.7,308.8,180.7,308.7,180.7,308.7z"/>
	<path class="st0" d="M319,233.2c-0.6-2.1-1-3.6-1.7-6c2.8,0.2,5.1,0.4,8.8,0.7C323.1,230.1,321.2,231.5,319,233.2z"/>
	<path class="st2" d="M276.6,244c0.6,1,1.2,1.9,1.9,2.9c0.5,1,1.2,2,1.5,3.1c2,6-0.4,12.5-5.6,15.5c-4.9,2.8-11.7,1.8-15.5-2.3
		c-3.9-4.1-4.4-11-1.4-15.7c3.3-5,9.9-6.9,15.9-4.6C274.4,243.3,275.5,243.7,276.6,244z"/>
	<path d="M259.6,234.5c0.7-1.3,1.3-2.7,2.2-4.1c5.3-8.3,8.8-8.7,16-1.9c2.3,2.2,4.3,4.6,6.6,6.7c2.3,2.1,2.1,3.9,0.3,6.4
		c-2,2.9-3.8,1.5-5.9,0.5c-3.1-1.6-6.1-3.4-9.3-4.7C266.5,236.2,263.4,235.6,259.6,234.5z"/>
	<path d="M276.6,244c-1.1-0.4-2.2-0.7-3.3-1.1c-6-2.3-12.6-0.4-15.9,4.6c-3.1,4.7-2.5,11.6,1.4,15.7c3.9,4.1,10.6,5.1,15.5,2.3
		c5.2-3,7.6-9.5,5.6-15.5c-0.4-1.1-1-2.1-1.5-3.1c4.1,2.3,3.9,6.3,3.7,10c-0.5,6.6-6.2,12.2-13,13.1c-6.1,0.8-12.7-3.1-15.1-9
		c-2.6-6.5-0.7-13.6,4.9-17.8C264.5,239,270.9,239.3,276.6,244z"/>
	<path d="M235.9,201.8c-1.7-3.6-3.7-7-4.9-10.6c-1-3.2,5.6-10,9-9.6c0.8,0.1,1.7,0.9,2.1,1.6C244.8,189.5,242.4,197.5,235.9,201.8z
		 M237.2,198.5c4.7-4.4,2.3-9.4,2.8-14.4C231.9,187.5,231.3,190.6,237.2,198.5z"/>
	<path d="M256.3,269.5c-8.1-3-10.4-8.1-5.9-15.7c-1.3,7.8,2.1,12,9,15.2c-2,0.3-2.7,0.3-3.3,0.4
		C256.2,269.4,256.3,269.5,256.3,269.5z"/>
	<path d="M276.6,278c-5.2-6.2-11.3-6.4-18.2-2.4c0.1-0.5,0.2-1.1,0.4-1.6c-1.6-0.5-3.2-1-4.8-1.5c0.8-1,1.6-2,2.4-3.1
		c0,0-0.1-0.1-0.2-0.1c1,1.2,2.1,2.4,3.5,4C266.1,271.3,272.7,269.9,276.6,278z"/>
	<path d="M247.5,267.3c-5.5-2.3-6.6-5.4-4.9-10.8C244.4,260.3,245.7,263.3,247.5,267.3z"/>
	<path d="M270.5,319.7c-0.2,1.9-0.4,3.8-0.7,7c5-4.2,9.5-6.9,14.5-0.9c0.2-0.4,0.5-0.7,0.7-1.1c-0.5-2.4-1-4.8-1.6-7.8
		c3.8,3,5,6.6,3.2,9.8c-0.5,0.9-5.5-0.6-8.5-1c0-0.5,0-1,0-1.5c-1.6,1-3.2,2.2-5,2.9c-1.4,0.5-3.1,0.4-4.6,0.6
		c-0.1-1.6-0.4-3.2-0.2-4.7c0.2-1.2,1-2.4,1.6-3.5C270,319.5,270.2,319.6,270.5,319.7z"/>
	<path class="st4" d="M237.2,198.5c-5.9-7.9-5.3-11,2.8-14.4C239.5,189,241.9,194,237.2,198.5z"/>
</g>
<circle cx="264.9" cy="255" r="5.4"/>
</svg>
